<svg xmlns="http://www.w3.org/2000/svg" viewBox="0 0 293.09 271.39"><g data-name="Layer 2"><g data-name="Layer 1"><path d="M216.16 200.73c-4-4.93-6.08-10.6-7.37-16.67l3.12 3.23.28-.16-5.55-16.93.18-.15c.9.75 1.81 1.49 2.85 2.34a3.29 3.29 0 0 0-.06-.64c-3-8.48-5.89-17-9.17-25.43-3.89-10-9.64-18.9-16.26-27.27a69.94 69.94 0 0 1-9.9-16.49 2.18 2.18 0 0 0-1.29-1.19c-.37-.07-1.09.52-1.29 1a31.23 31.23 0 0 0-1.81 4.92c-.92 3.67-1.66 7.38-2.48 11.08 0 .23-.13.46-.24.85-.25-.32-.45-.52-.6-.76a59.68 59.68 0 0 0-9.74-11.64 8.64 8.64 0 0 0-1.51-1.18c-1.13-.71-1.82-.39-1.75.93a20.45 20.45 0 0 0 .59 3.88c.89 3.6 1.92 7.17 2.79 10.77.8 3.29.5 3.78-2.59 5.11-3.88 1.67-7.93 3-11.61 5.07a80.79 80.79 0 0 0-9.86 7c-3 2.35-4.36 5.73-5 9.41-.09.55-.24 1.09-.34 1.64a7 7 0 0 1-3.32 4.75c-2.49 1.58-5 3.24-7.32 5-2.54 1.87-2.83 2.51-1.63 5.35 1.47 3.52 1.82 7.25 2.49 10.92a11.52 11.52 0 0 0 7 9c2.73 1.22 5.54 2.25 8.26 3.49a7.92 7.92 0 0 1 2.63 1.95 25.87 25.87 0 0 1 6.45 12.61c.64-1.48 1.28-2.95 1.93-4.43h.37c.13 4.67.25 9.34.38 14.11a62.39 62.39 0 0 1-18.11-5c-6.34-2.91-12.69-5.82-19.17-8.41a44.15 44.15 0 0 0-19.81-3.24 63.53 63.53 0 0 0-19.7 4.76l-1.35.55a88 88 0 0 1-14.07-39.58 1.51 1.51 0 0 1 .75-1.57c6.13-4.35 13-7.14 20.11-9.32a131.53 131.53 0 0 1 22.48-4.63 49.77 49.77 0 0 0 15.73-4.4 31.77 31.77 0 0 0 16.24-16.88c.08-.21.13-.43.19-.65l-.28-.29-5.64 4.86c4.61-9.6 9.24-19.13 12.55-29.41l-4.87 3.29-.21-.2c2.37-3.9 4.45-8 7.19-11.65s6.1-6.67 9.07-10.21L133.7 83.4 154.75 66l-.16-.32-6.69.5c3.08-3.4 6.11-6.61 9-10 3.72-4.33 7.33-8.77 10.93-13.2.88-1.08 1.51-2.35 2.33-3.47a23.31 23.31 0 0 1 2.92-3.6 3.71 3.71 0 0 1 5-.12 9.66 9.66 0 0 1 3.29 4.33c.64 1.5 1.25 3 2 4.72.69-.9 1.25-1.69 1.88-2.42 1.29-1.5 2.92-2.35 4.88-1.67a7.76 7.76 0 0 1 2.62 1.81c2.33 2.27 2.92 5.33 3.54 8.35.45 2.19.88 4.38 1.2 6.59a2.7 2.7 0 0 0 2 2.39 51 51 0 0 1 17.21 10.48A30.74 30.74 0 0 1 226 88c.7 3.76 1.4 7.52 2.18 11.27a7.06 7.06 0 0 0 5.08 5.62 97.05 97.05 0 0 1 10.73 4.4c4.86 2.35 6 4.74 4.67 10a125.74 125.74 0 0 1-3.82 12.44c-1.14 3.14-3.48 5.56-6 7.66-2.76 2.29-5.72 4.35-8.6 6.5-.57.43-1.18.82-1.79 1.2-2.36 1.5-3.1 3.43-2.53 6.31 1 5 1.51 10.1 2.21 15.15a8.61 8.61 0 0 1 0 1.25l-3.88-4-.29.2c.32 1.86.75 3.71.93 5.58q.45 4.47.6 9a7.77 7.77 0 0 1-.69 2.64 79.37 79.37 0 0 1-8.05 16.8c-.17.17-.35.38-.59.71Z"/><path d="M45.52 106.24A180.4 180.4 0 0 0 39.84 132c-.7 4.89-1.16 9.82-1.5 14.74a104.19 104.19 0 0 0-.21 11.85 100.07 100.07 0 0 0 8.49 35.89 101.74 101.74 0 0 0 13.49 22.3c.27.33.57.65.9 1a4.28 4.28 0 0 0 .72-.47c5.77-5.61 12.86-8.64 20.53-10.54A36.69 36.69 0 0 1 93 205.38a48.25 48.25 0 0 1 16.83 4.36c5.77 2.55 11.48 5.22 17.25 7.79 5.33 2.37 11 3.46 16.75 4.33 5.32.8 10.65 1.52 16 2.12 4.2.47 8.42.63 12.63 1.05a54.15 54.15 0 0 1 17.34 4.27 7 7 0 0 1 4.41 6.33 5 5 0 0 1-3.44 5.23 43.13 43.13 0 0 1-7.2 1.63 62.88 62.88 0 0 1-6.45.3c-4.69.16-9.16-1.12-13.7-2-4.88-.95-9.76-2-14.69-2.65a16.17 16.17 0 0 0-6 .69c-2.11.57-2.64 2.28-1.23 4a18.79 18.79 0 0 0 4.28 3.77 40.23 40.23 0 0 0 17.42 5.83c9.14 1.1 17.47-1.23 25.52-5.26a152.82 152.82 0 0 0 21.67-12.74c2.13-1.54 4.51-2.55 7.29-2s3.91 2.4 2.79 5a18.11 18.11 0 0 1-2.8 4.56 88.34 88.34 0 0 1-24.64 20.18 68.72 68.72 0 0 1-21.92 7.72 125.89 125.89 0 0 1-25.06 1.36c-3.26-.11-6.51-.57-9.75-.94A106.41 106.41 0 0 1 77 244.1 117.11 117.11 0 0 1 35.83 167a113.11 113.11 0 0 1-.61-17.45 117 117 0 0 1 10-42.85 3 3 0 0 1 .3-.46ZM231.35 239.17c17.28-18.8 27.75-40.79 31-66.15 1-8.17 1.42-16.36.09-24.56a119.68 119.68 0 0 1-8.82 43.41 115.17 115.17 0 0 1-24.63 37 13.58 13.58 0 0 0-6.25-5.17 17.26 17.26 0 0 0-8-1.25c2.36-2.38 4.62-4.52 6.71-6.81a100.6 100.6 0 0 0 24.63-48.41 98.69 98.69 0 0 0 1.92-21.8 2.92 2.92 0 0 1 .62-2c4-4.2 6.15-9.34 7.48-14.91.64-2.63 1.72-5.16 2.25-7.8.94-4.67.81-9.29-1.81-13.52a16.45 16.45 0 0 0-6.93-6.12c-3.58-1.74-7.29-3.24-11-4.78a1.92 1.92 0 0 1-1.41-1.54c-.59-3.38-1.19-6.75-1.89-10.11-2.4-11.52-8.77-20.34-18.54-26.73-3-1.94-6.14-3.57-9.25-5.27a2.33 2.33 0 0 1-1.36-1.78c-.66-3.38-1.16-6.87-2.86-10.03-.52-1-1.12-1.93-1.67-2.87 27.05 9.63 60 36.61 71 79.75a116.65 116.65 0 0 1-41.28 121.45Z"/><path d="M84.4 131.43c.38-.69.64-1.07.83-1.49q11.28-25.74 22.5-51.49a24.11 24.11 0 0 0 1.75-6.29c.4-2.85-1.15-4.89-3.58-6.23a17.05 17.05 0 0 0-3.32-1.33 1.12 1.12 0 0 1-.93-1.4c.13-.88.83-.56 1.33-.54 5 .29 10.11.94 15.15.78 5.6-.18 11.17-1.1 16.75-1.7.74-.08 1.47-.19 2.55-.32l-12.81 9.46.06.36 6.51 1.47-24.59 19.87.15.42h16.53l.25.4-16.94 25.87.21.35 10.07-3c-1.3 2.49-2.33 4.81-3.64 7-1.73 2.82-3.66 5.53-5.56 8.25a3.37 3.37 0 0 1-1.44 1.15 61.62 61.62 0 0 1-14 3.41c-5.32.76-10.58 1.93-15.84 3-1.23.25-1.71 0-2.22-1.12Q61.39 109 48.51 79.79A71.42 71.42 0 0 0 44 71.32a14.64 14.64 0 0 0-8.23-6.78c-.72-.22-1-.73-.79-1.35a1.29 1.29 0 0 1 1.07-.55c4.86.26 9.71.67 14.57.84 2.7.1 5.42-.12 8.12-.29 2.11-.12 4.21-.4 6.31-.54.34 0 .7.31 1 .48-.22.45-.34 1.09-.7 1.31a18 18 0 0 1-2.24.8c-3.78 1.52-5.27 4.25-4 8.11 1 3.1 2.4 6.08 3.71 9.08q10.35 23.71 20.76 47.41c.23.43.42.84.82 1.59Z"/><path d="M82.4 110.42a8.8 8.8 0 0 1-.26-1.32c-.19-4.79-.36-9.58-.54-14.37v-.84c0-1.39-.21-2.6-1.75-3.11a1.79 1.79 0 0 1-.47-.36c-2.87-2.41-2.7-4.7.57-6.45a1.62 1.62 0 0 0 1-1.86 23.4 23.4 0 0 1-.18-3.83c.09-1.42-.56-2-1.78-2.63a45.65 45.65 0 0 1-6.62-3.81c-2.53-1.82-2.32-4.24.43-5.67a55.79 55.79 0 0 1 6.28-2.62c.69-.26.94-.57.89-1.28-.12-1.8-.23-3.59-.25-5.39 0-.78-.49-.91-1-1.07-2.21-.67-4.45-1.28-6.64-2a19 19 0 0 1-7.93-4.53c-2.47-2.54-2.29-5.23.75-7.08a32.52 32.52 0 0 1 6-2.64c2.21-.79 4.49-1.39 6.77-2 .88-.23 1.11-.61 1-1.5-.23-3.3-.4-6.61-.53-9.92a1.16 1.16 0 0 1 .65-.88c1.29-.4 2.61-.73 3.93-1a6 6 0 0 1 1.79-.08c1.51.12 2 .69 2 2.21v7.51c3-.68 4.57-3.48 3.64-6.69a8.92 8.92 0 0 0-3.92-5.11 4.3 4.3 0 0 0-3.68-.48c-2.14.61-4.29 1.23-6.46 1.73s-3.7-1.07-2.7-3.19c2-4.18 6.4-8.07 11.83-5.7a18.85 18.85 0 0 1 10.91 12.2c1.26 4.21-.15 7.76-3.59 10.38a40.11 40.11 0 0 1-5.33 3.18C86.47 40.64 86 41 86 42c0 3-.19 5.9-.39 8.85-.07 1.05.31 1.46 1.25 1.91a64.14 64.14 0 0 1 7 3.83 4.88 4.88 0 0 1 1.79 2.57 3.22 3.22 0 0 1-1.54 4c-2.51 1.29-5.07 2.5-7.69 3.55-1.09.44-1.61.86-1.54 2.09a22.87 22.87 0 0 1-.17 3.7 1.56 1.56 0 0 0 1 1.75 33.3 33.3 0 0 1 4.53 2.87 4.91 4.91 0 0 1 1.46 2.13 2.42 2.42 0 0 1-.84 3.1c-1.89 1.25-3.82 2.46-5.79 3.58a1.56 1.56 0 0 0-1 1.44q-.49 10.9-1.07 21.79c0 .42-.13.83-.19 1.25ZM79 43.36c-2.27.64-4.36 1.1-6.36 1.82-1.45.53-1.53 1.58-.3 2.5 2 1.5 4.44 1.94 7 2.58-.1-2.26-.21-4.44-.34-6.9Zm-.45-25.81a1.45 1.45 0 0 0-1.32 1.59c0 .8.79 1.67 1.49 1.57a1.58 1.58 0 0 0 1.46-1.63 1.55 1.55 0 0 0-1.62-1.53Zm6.85 40.64-.19 3.28c1.56 0 2.72-.7 2.8-1.55s-1.01-1.57-2.6-1.73Zm-5.18 10c-1.12.22-2.39.23-2.55 1.33-.07.49 1.12 1.19 1.78 1.74a3.13 3.13 0 0 0 1 .3c-.06-1.15-.14-2.2-.22-3.33Zm4.72 10.21-.42.28v3.13l.26.25c.58-.61 1.55-1.17 1.64-1.83s-.95-1.23-1.48-1.83ZM97.93 47.15a114.41 114.41 0 0 1 67-16.82q-5.73 7.39-11.49 14.78a1.7 1.7 0 0 1-1.21.51c-3 0-6.07-.08-9.11 0a96.68 96.68 0 0 0-32.88 6.63 11.24 11.24 0 0 1-6.19.53 1.28 1.28 0 0 1-.7-.38c-.83-.91-1.58-1.91-2.46-2.77S99 48 97.93 47.15ZM293 227.17c-6.7-1.43-13-3.39-17.6-8.8-3.88-4.59-4.48-10-3.27-15.74 1.27 1.87 2.41 3.74 3.73 5.46a41.38 41.38 0 0 0 4.46 4.83 35.64 35.64 0 0 1-5.86-12.44c.82.23 1.54.39 2.23.62 6.43 2.18 10.6 6.73 13.3 12.79a38.34 38.34 0 0 1 3.06 12.6 3.82 3.82 0 0 1-.05.68ZM30.44 155.46a38.79 38.79 0 0 0-13.23-4.83 33.17 33.17 0 0 1 12.43 7.74 20.24 20.24 0 0 1-13 .23c-7.1-2.3-12.31-7.07-16.54-13 0-.05 0-.14-.06-.3a33.55 33.55 0 0 1 15.42-2.55c7.19.63 12.8 5.36 14.98 12.71ZM29.11 131.71l-7.29-4.66-.28.37a22.65 22.65 0 0 1 6.54 6.4c-7.81 1.54-15.33-5-18.45-13 .88-.12 1.72-.27 2.56-.35a21.31 21.31 0 0 1 8.18.63 11.9 11.9 0 0 1 8.74 10.61ZM272 243c-3.76-1.58-7.2-3.47-9.69-6.7-3.09-4-3.12-8.34-1.25-13.05.67 1.55 1.19 2.94 1.84 4.26s1.42 2.57 2.25 4.05c-.86-3.22-1.66-6.19-2.49-9.32 6.49 1.2 11.59 12.83 9.34 20.76ZM245.08 255.9c-2.22-4.05-3.9-8.1-2.69-12.75a10 10 0 0 1 5.43-6.34l-1.43 7.13h.2l3.09-7.31c3.74 5.52 1.32 14.07-4.6 19.27ZM30.81 106.6l1.19 7.86c-5.45-1.52-8.6-11.55-6.14-18.57 4.92 1.55 9.4 7.32 9.36 12a10.1 10.1 0 0 1-1.67 5.57l-2.54-7ZM87.57 13c-3.57-2-6.57-2.27-9.74.34-.34-4.76.23-9 4.13-12C83.12.42 84.42-.44 85.9.25S87.54 2.51 87.56 4c.03 3 .01 6 .01 9Z"/></g></g></svg>