<svg xmlns="http://www.w3.org/2000/svg" viewBox="0 0 253.81 83.88"><g data-name="Layer 2"><g data-name="Layer 1"><path d="M47.4 32.59a11.2 11.2 0 0 0 .14 1.27c.25 1 .55 2.09.82 3.13a5.83 5.83 0 0 1 .15.7c.09.78 0 1-.69 1.26s-1.33.54-2 .8a15.87 15.87 0 0 0-4.45 2.67 4.72 4.72 0 0 0-1.86 3.07A3.14 3.14 0 0 1 37.75 48a17.74 17.74 0 0 0-1.91 1.34 1 1 0 0 0-.37 1.26 16.26 16.26 0 0 1 .84 3.57 3.59 3.59 0 0 0 2.21 2.86c.71.31 1.42.63 2.15.89a3.17 3.17 0 0 1 1.54 1.18 7.8 7.8 0 0 1 1.47 3 4.34 4.34 0 0 0 .2.42l.61-1a17 17 0 0 1 .11 4c-.38 0-.7 0-1-.08a17.59 17.59 0 0 1-4.69-1.5c-1.57-.73-3.15-1.47-4.75-2.14A15.76 15.76 0 0 0 27 60.4a20.64 20.64 0 0 0-5.58 1.32l-.79.31a4 4 0 0 1-.34-.38 27.44 27.44 0 0 1-4.05-11.41 1 1 0 0 1 .48-1 24 24 0 0 1 6.74-2.91A52.65 52.65 0 0 1 30 45a14.22 14.22 0 0 0 5.63-2 9.75 9.75 0 0 0 3.54-3.86 5.44 5.44 0 0 0 .28-.66s0-.11-.06-.31L38 39.38a91.93 91.93 0 0 0 3.72-8.82c-.37.2-.57.3-.75.42a1.66 1.66 0 0 1-.72.32c.69-1.14 1.3-2.34 2.09-3.39A37.59 37.59 0 0 1 45 25l-.09-.18-3.07.77-.09-.14 5.95-4.94-.08-.15H45.9c.18-.23.28-.37.39-.5 1.7-2 3.42-3.92 5.1-5.91A23.33 23.33 0 0 0 52.73 12c.39-.58.77-1.19 1.58-1.16s1.25.65 1.59 1.3c.25.5.46 1 .74 1.66.28-.31.47-.55.69-.77a1.28 1.28 0 0 1 2 0 4.78 4.78 0 0 1 1 1.67 16.64 16.64 0 0 1 .57 2.72 1.38 1.38 0 0 0 1 1.23 15.94 15.94 0 0 1 4.36 2.47 9.76 9.76 0 0 1 3.65 6.39c.15.95.36 1.88.53 2.82a2.5 2.5 0 0 0 1.86 2.17 26.76 26.76 0 0 1 3 1.22 5.93 5.93 0 0 1 1.07.66 1.27 1.27 0 0 1 .58 1.15 20.1 20.1 0 0 1-.32 2.2c-.12.56-.37 1.08-.49 1.64a6.51 6.51 0 0 1-2.33 3.73c-.81.67-1.67 1.27-2.51 1.89l-.81.57a1.57 1.57 0 0 0-.67 1.79c.27 1.41.44 2.84.64 4.26v.67l-1.2-1c.14 1 .26 1.92.39 2.8a5.8 5.8 0 0 1-.34 3.08 26.39 26.39 0 0 1-2.37 4.72 8.7 8.7 0 0 1-2.26-4.73l.77.64.15-.08c-.51-1.6-1-3.2-1.58-4.92l.78.4a3.12 3.12 0 0 0-.11-.59c-.82-2.31-1.59-4.64-2.47-6.93a31.47 31.47 0 0 0-4.41-7.8 27.57 27.57 0 0 1-3.87-6.13.81.81 0 0 0-.5-.42c-.12 0-.36.21-.43.37a8.46 8.46 0 0 0-.52 1.43c-.3 1.13-.55 2.26-.84 3.5l-.48-.57c-.86-1-1.71-2-2.58-3a1.17 1.17 0 0 0-1.19-.46Z"/><path d="M13.16 35.12c-.38 2-.8 4-1.1 6a33.4 33.4 0 0 0 1.71 18A32.38 32.38 0 0 0 18 66.53a7.56 7.56 0 0 0 .59.68 1.24 1.24 0 0 0 .29.15l.61-.46A15 15 0 0 1 27 63.73a11 11 0 0 1 6 .87c2 .81 4 1.72 5.92 2.61a22 22 0 0 0 6 1.57c1.74.26 3.49.47 5.24.67 1 .12 2.09.15 3.14.24a16.39 16.39 0 0 1 5.21 1.23 2.31 2.31 0 0 1 1.41 1.42 1.54 1.54 0 0 1-.84 2 9.37 9.37 0 0 1-2.34.54 19.22 19.22 0 0 1-6.49-.58 40.28 40.28 0 0 0-4.06-.76 5.12 5.12 0 0 0-1.94.19c-.8.21-1 .86-.45 1.53a4.73 4.73 0 0 0 1 .89 12.58 12.58 0 0 0 5.44 2A13.25 13.25 0 0 0 58 76.72a46.77 46.77 0 0 0 7-4 3 3 0 0 1 2.15-.72c.91.12 1.26.66.9 1.51a4.85 4.85 0 0 1-.74 1.21 27.39 27.39 0 0 1-7.75 6.34 19.86 19.86 0 0 1-7.91 2.49 48.48 48.48 0 0 1-5.1.32c-7.81-.17-15-2.29-21.21-7.18a37 37 0 0 1-12.5-17.18 36.72 36.72 0 0 1 .22-24.2.89.89 0 0 1 .1-.19ZM72.52 73a36.66 36.66 0 0 0 9-21.87c.22-3.12.09-4.29-.41-5.15a46.74 46.74 0 0 1-1.28 9A34.87 34.87 0 0 1 71 70.44a16.74 16.74 0 0 0-2-1.26 16 16 0 0 0-2.12-.66c.18-.2.33-.41.51-.59a31.37 31.37 0 0 0 8.81-16.18 27.75 27.75 0 0 0 .64-6.23 2.19 2.19 0 0 1 .56-1.64 7.5 7.5 0 0 0 1.67-3.24c.17-.7.43-1.37.64-2.06a7.12 7.12 0 0 0 .22-4.4 4.19 4.19 0 0 0-1.63-2.31 29.85 29.85 0 0 0-2.65-1.48 14.66 14.66 0 0 0-1.59-.64.93.93 0 0 1-.65-.77c-.15-.92-.32-1.83-.5-2.73a12.5 12.5 0 0 0-5.06-7.9 31.06 31.06 0 0 0-3.22-2 1.41 1.41 0 0 1-.84-1.06 9.07 9.07 0 0 0-1.18-3.41A36 36 0 0 1 72.52 73Z"/><path d="M26.15 40.52a8.28 8.28 0 0 0 .45-.83q3.45-7.84 6.88-15.69a5.79 5.79 0 0 0 .38-1.29 2.19 2.19 0 0 0-1.35-2.55l-.95-.43.05-.17c1.67.06 3.36.21 5 .15s3.39-.33 5.15-.38l-3.32 2.47c.51.62 1.21.39 1.77.77l-7.45 6a6.18 6.18 0 0 0 2.63.26h2.59c-.39.62-.68 1.1-1 1.57-1.2 1.83-2.41 3.65-3.61 5.47-.19.29-.32.61-.48.91L33 37l2.83-.77c-.41.77-.69 1.38-1 2-.47.77-1 1.49-1.49 2.25a1.72 1.72 0 0 1-1 .73 21.25 21.25 0 0 1-4 .9c-1.42.19-2.82.51-4.23.77l-.94.21c-.11-.21-.24-.4-.33-.61q-3.84-8.73-7.62-17.4c-.41-.93-.9-1.82-1.38-2.72a5.3 5.3 0 0 0-2.55-2.44 1 1 0 0 1-.3-.19s0-.1-.1-.29a40.07 40.07 0 0 0 9.41-.05c-.25.28-.33.42-.45.49-.32.17-.68.26-1 .45a1.77 1.77 0 0 0-.84 2 11.29 11.29 0 0 0 .65 1.85Q22.07 32 25.5 39.73c.12.27.27.52.4.78ZM174.18 36.18a25.53 25.53 0 0 1 .57-3.22 7.39 7.39 0 0 1 5.8-5.29 10.94 10.94 0 0 1 5.51.15 7.34 7.34 0 0 1 5.24 5.42 11.89 11.89 0 0 1 0 6.21 7.57 7.57 0 0 1-6.91 5.85 11.83 11.83 0 0 1-4.11-.23 7.52 7.52 0 0 1-5.8-6.16c-.14-.82-.17-1.66-.3-2.73Zm12.14.2a9 9 0 0 0-.6-3.17 2.79 2.79 0 0 0-2.72-1.74 2.64 2.64 0 0 0-2.71 1.68 8.83 8.83 0 0 0 0 6.55 2.39 2.39 0 0 0 .43.67 2.52 2.52 0 0 0 1.6.9 2.88 2.88 0 0 0 3.59-2.27 23 23 0 0 0 .41-2.62ZM113.58 32.46l-4.4 1.76c-.11-.28-.22-.52-.29-.76a2.43 2.43 0 0 0-2.1-1.95 3 3 0 0 0-3.06 1.09 3.76 3.76 0 0 0-.64 1.26 9.58 9.58 0 0 0 0 5.15 3 3 0 0 0 3.39 2.3 2.55 2.55 0 0 0 2.38-1.74l.32-.83 4.64 1.26a6.37 6.37 0 0 1-1.51 3 6.78 6.78 0 0 1-4.06 2.13A11.94 11.94 0 0 1 103 45a7.31 7.31 0 0 1-5.26-5.18 11.57 11.57 0 0 1 0-6.82 7.38 7.38 0 0 1 5.79-5.3 11 11 0 0 1 6 .3 5.83 5.83 0 0 1 4 3.93 1.38 1.38 0 0 1 .06.26c.03.04.01.1-.01.27ZM253.78 39.64h-8.64c0 1.12.37 1.8 1.25 2a2.39 2.39 0 0 0 3.07-1.11l4.09 1.22A3.75 3.75 0 0 1 252 44a6.67 6.67 0 0 1-3.23 1.26 10.27 10.27 0 0 1-4.44-.29 6 6 0 0 1-4.33-5.56 10.88 10.88 0 0 1 .08-2.42 6.17 6.17 0 0 1 5.78-5.25 9.42 9.42 0 0 1 3.91.32 5.58 5.58 0 0 1 4 4.92 23.23 23.23 0 0 1 .01 2.66Zm-8.64-2.25h3.57c.13-1.31-.5-2.12-1.6-2.16-1.26-.03-1.99.71-1.97 2.16ZM172.47 39.59c-3 .07-5.83 0-8.68 0 .05 1.19.42 1.82 1.29 2a2.41 2.41 0 0 0 3.06-1.12l4.08 1.21a3.5 3.5 0 0 1-1.21 2 6.65 6.65 0 0 1-3.5 1.51 10 10 0 0 1-4.45-.27 5.93 5.93 0 0 1-4.4-5.6 11 11 0 0 1 .1-2.5 6.13 6.13 0 0 1 5.78-5.13 9 9 0 0 1 3.83.29 5.67 5.67 0 0 1 4.09 5.14c.06.82.01 1.59.01 2.47Zm-5-2.28c0-1.39-.6-2.07-1.72-2.08s-1.87.69-1.92 2a11.52 11.52 0 0 0 3.61.08ZM203.93 26.76l-.41 3-.65-.12a7 7 0 0 0-.89-.11c-1.52 0-2.3.74-2 2.37 1.17.08 2.39 0 3.73.05.05 1.14 0 2.26 0 3.47-1.13.26-2.28 0-3.5.21v9.45H195v-9.46l-1.89-.16V32l1.84-.1c0-.32.05-.64.06-.95a4.56 4.56 0 0 1 4.26-4.8 8.28 8.28 0 0 1 3.64.21c.31.07.63.24 1.02.4ZM238.77 29.75l-.65-.11a5.43 5.43 0 0 0-.89-.12c-1.57 0-2.29.77-2 2.35 1.18.13 2.4 0 3.72.09v3.45c-1.14.26-2.29 0-3.5.2-.09 3.15 0 6.28-.07 9.46h-5.19v-9.46l-1.89-.16V32l1.84-.1a8.43 8.43 0 0 0 0-.86c-.07-3 1.93-4.56 4.35-4.9a8.1 8.1 0 0 1 4.14.43 3.31 3.31 0 0 1 .45.26c-.08.93-.17 1.9-.31 2.92ZM205.67 27.74h5.25v13.32c.43 0 .77.09 1.11.09h7.2c.11 1.35.05 2.61 0 3.92h-13.56ZM143.77 39.9l4.59 1.44a3.5 3.5 0 0 1-1.22 2.37 6.21 6.21 0 0 1-3.47 1.54 10.57 10.57 0 0 1-4.37-.25 6 6 0 0 1-4.68-5.87 10 10 0 0 1 .21-2.67 6.1 6.1 0 0 1 5.55-4.74 10.57 10.57 0 0 1 4.54.34 5 5 0 0 1 2.94 2.23 12.63 12.63 0 0 1 .62 1.54l-2.5.79c-.77.24-1.55.46-2.36.7l-.24-.91a1.41 1.41 0 0 0-1.21-1.17 1.73 1.73 0 0 0-1.79.78 2.53 2.53 0 0 0-.29.65 7.39 7.39 0 0 0 0 3.56 1.86 1.86 0 0 0 1 1.31 1.67 1.67 0 0 0 2.43-.92c.06-.17.14-.4.25-.72ZM157.82 41.86c-.06.78-.13 1.5-.18 2.21a.93.93 0 0 1-.73.9 7.14 7.14 0 0 1-4.5.09 2.88 2.88 0 0 1-2-2.53 11.76 11.76 0 0 1-.14-1.78v-13.2c0-.32 0-.64.05-1h5.2V40c0 1.68.25 1.92 1.93 1.85a2.46 2.46 0 0 1 .37.01Z"/><path d="m24.29 11.47-.17-3.61a14.76 14.76 0 0 1 1.8-.37c.55 0 .69.14.7.69v2.23c1.07-.37 1.42-.86 1.27-1.8a2.45 2.45 0 0 0-1.46-1.91 1.89 1.89 0 0 0-1-.06c-.64.13-1.27.35-1.91.49s-1-.22-.83-.92a2.91 2.91 0 0 1 3.28-1.86 5.93 5.93 0 0 1 3.8 4.4 2.59 2.59 0 0 1-.9 2.34 7.78 7.78 0 0 1-1.7 1.14 1 1 0 0 0-.67 1v2.87a7.57 7.57 0 0 1 .81.36 12.06 12.06 0 0 1 1.81 1.15 1.12 1.12 0 0 1-.17 1.89 13.27 13.27 0 0 1-1.6.8c-.35.16-.72.28-1 .4 0 .12-.08.17-.09.23-.26 1.16-.26 2.16 1.12 2.57a1.26 1.26 0 0 1 .48.39c.64.64.62 1.17-.1 1.72a6.67 6.67 0 0 1-1.22.75 1.07 1.07 0 0 0-.69 1.11c0 1.73-.14 3.47-.22 5.2a2.65 2.65 0 0 1-.23 1c-.06-.92-.12-1.84-.16-2.77 0-.53-.06-1.07 0-1.61s-.05-1.13-.68-1.42a1 1 0 0 1-.31-.31c-.46-.57-.45-1.06.18-1.44a1.17 1.17 0 0 0 .6-1.34 2.17 2.17 0 0 1 0-.36 1.15 1.15 0 0 0-.79-1.24 8.78 8.78 0 0 1-1.85-1.08c-.76-.57-.69-1.21.12-1.7a9.18 9.18 0 0 1 1-.4c.36-.15.72-.28 1-.4a1.07 1.07 0 0 0 .11-.22c.09-2 .08-2-1.78-2.58a10.92 10.92 0 0 1-2.6-1.18c-1.47-1-1.34-2.14.29-2.87.87-.38 1.8-.63 2.71-.93Zm.2 4.14a5.85 5.85 0 0 0-.25-2.21c-.56.14-1.11.23-1.64.42-.22.07-.51.33-.51.5a.81.81 0 0 0 .46.57c.57.26 1.16.44 1.94.72Zm.43-9.7c-.28-.25-.42-.47-.6-.51a.39.39 0 0 0-.51.44c0 .18.24.49.38.49s.4-.22.73-.42ZM26.25 19c.47 0 .86-.06.87-.5s-.35-.48-.81-.51Zm-2.35 2.34v.26l.9.57V21Zm2.16 3.85c.37 0 .59-.13.6-.41s-.21-.48-.6-.41ZM128.31 32l.21 2.58h.17l.44-.85a3.66 3.66 0 0 1 4.05-2c.56.09.64.19.62.77 0 .33 0 .66-.08 1-.1.86-.21 1.71-.33 2.64l-.63-.06a10 10 0 0 0-1.34-.06 2.52 2.52 0 0 0-2.51 2.71v6.3a15.6 15.6 0 0 1-2.63.09h-2.49c-.21-.71-.24-12.2 0-13.15ZM30.48 14.49a36.06 36.06 0 0 1 20.19-5.16c-.49.76-.9 1.47-1.37 2.13s-1.07 1.3-1.58 2a1.3 1.3 0 0 1-1.23.58h-1.35a29.17 29.17 0 0 0-11.23 2.07 1.92 1.92 0 0 1-2.46-.57c-.26-.37-.57-.65-.97-1.05ZM120.81 45.09h-5c-.19-.62-.26-11.7-.07-13.11h5c.26.72.26 12.26.07 13.11ZM226.56 31.92V45a24.12 24.12 0 0 1-5.12 0V31.94h2.48ZM197.18 59.33l2.1.58a1.74 1.74 0 0 1-.41 1.28A4.27 4.27 0 0 1 195.6 63a7.79 7.79 0 0 1-2.31-.12 4.53 4.53 0 0 1-3.77-4 7.88 7.88 0 0 1 .15-3.48 4.76 4.76 0 0 1 4.51-3.48 6.58 6.58 0 0 1 3.16.5 3.59 3.59 0 0 1 1.75 1.73c.18.37.12.64-.27.79-.55.23-1.11.44-1.68.67-.09-.15-.17-.24-.22-.34a2.07 2.07 0 0 0-2.28-1.35 2.3 2.3 0 0 0-2.17 1.48 5.31 5.31 0 0 0 0 4.28 2.27 2.27 0 0 0 2.12 1.41 2.21 2.21 0 0 0 2.26-1.15c.09-.19.15-.35.33-.61ZM103 60.89c.19-.49.34-.81.43-1.13.69-2.26 1.36-4.52 2-6.78.28-.92.29-.92 1.24-.92h1.35s.09.06.22.14c-.16.48-.31 1-.48 1.49q-1.47 4.14-3 8.27c-.31.89-.31.89-1.27.89h-1.61a.78.78 0 0 1-.86-.62c-.34-1-.7-2-1.06-3L97.77 53a6.67 6.67 0 0 1-.2-.8 6.74 6.74 0 0 1 2.27-.1c.43 0 .47.42.57.72q.75 2.43 1.48 4.88c.25.83.48 1.67.73 2.5a4.87 4.87 0 0 0 .38.69ZM179.51 61c.09-.28.19-.55.27-.82.42-1.53.83-3.06 1.24-4.59.24-.84.27-.87 1.18-.87h1.5c-.1.37-.15.63-.24.87-.92 2.55-1.84 5.11-2.79 7.66a9.51 9.51 0 0 1-.79 1.6 2.94 2.94 0 0 1-2.74 1.57 11.6 11.6 0 0 1-1.86-.18c-.56-.12-.63-.31-.5-.84.06-.29.18-.56.28-.88.5 0 1 .07 1.44.07a1.41 1.41 0 0 0 1.4-2.11l-2.81-6.89c-.1-.24-.17-.49-.27-.8a10 10 0 0 1 2.36-.09c.4 0 .46.33.54.61.4 1.47.78 2.95 1.18 4.42.11.42.23.83.35 1.25ZM160.18 57.46l-1.58-.36a1.89 1.89 0 0 1-.34-.18 2.12 2.12 0 0 1 1.23-1.75 5.3 5.3 0 0 1 5-.05 2.22 2.22 0 0 1 1.28 2v2.78c0 .93 0 1.55 1 1.72.15 1.19 0 1.39-1.06 1.41a2.19 2.19 0 0 1-1.77-.71c-.12-.13-.26-.23-.41-.37a3.29 3.29 0 0 0-.39.27 3.63 3.63 0 0 1-3.55.64 1.78 1.78 0 0 1-1.44-1.81 1.88 1.88 0 0 1 1.26-2.14 19.16 19.16 0 0 1 2.26-.57c.38-.09.77-.13 1.14-.23a.56.56 0 0 0 .47-.73 1.3 1.3 0 0 0-.95-1.09 1.53 1.53 0 0 0-1.63.47 4 4 0 0 0-.52.7Zm2.87 1.87a13.33 13.33 0 0 0-1.86.47.83.83 0 0 0-.17 1.5 1.76 1.76 0 0 0 1.77-.21 1.43 1.43 0 0 0 .26-1.76ZM150.64 56.18c.17-.19.34-.39.5-.59a3.15 3.15 0 0 1 3.93-.6 2.3 2.3 0 0 1 1.12 1.94c.05 1.77 0 3.54 0 5.3 0 .45-.18.67-.64.65s-.72 0-1.08 0c-.78 0-.83-.05-.83-.81v-3.5a7.3 7.3 0 0 0 0-.81 1.35 1.35 0 0 0-1.1-1.26 1.5 1.5 0 0 0-1.6.76 3.32 3.32 0 0 0-.29 1.28v3.51c0 .77 0 .81-.81.83h-.9c-.78 0-.82-.06-.84-.8v-6.29c0-1 0-1 1.07-1h.18c.87 0 .87 0 1 .86a2.25 2.25 0 0 0 .13.42s.06.03.16.11ZM128.2 59.5a1.82 1.82 0 0 0 2.8 1.61c.33-.18.66-.56 1-.54a6.88 6.88 0 0 1 1.64.47 1.55 1.55 0 0 1-.7 1.15 5.24 5.24 0 0 1-5.68.11 3.56 3.56 0 0 1-1.44-2.09 5.57 5.57 0 0 1 0-2.66 3.78 3.78 0 0 1 3.62-3h.63a3.68 3.68 0 0 1 3.93 4.1c0 .69-.09.76-.8.76h-4.31c-.27.05-.45.07-.69.09Zm3.08-1.35c.12-1.08-.3-1.68-1.18-1.84a1.7 1.7 0 0 0-1.9 1.26c-.06.3 0 .57.36.58.91.02 1.83 0 2.72 0ZM111.09 59.46a1.81 1.81 0 0 0 2.76 1.65c.31-.17.59-.39.89-.57a.37.37 0 0 1 .27 0l1.57.54a8.21 8.21 0 0 1-.56.82 3.56 3.56 0 0 1-2.22 1.1 5.47 5.47 0 0 1-2.83-.25 3.6 3.6 0 0 1-2.45-3.33 6.87 6.87 0 0 1 .09-1.87 3.7 3.7 0 0 1 3.25-2.93 6.23 6.23 0 0 1 1.88 0c2.22.41 3.11 2.11 3.06 4.11 0 .57-.16.69-.81.69h-3.86Zm0-1.29h2.53c.61 0 .77-.3.55-.89a1.5 1.5 0 0 0-1.72-1c-.89.21-1.34.72-1.35 1.89ZM214.22 56.25c.25-.3.39-.45.52-.6a3 3 0 0 1 3.24-1 2.35 2.35 0 0 1 1.87 2.35c.08 1.76 0 3.52 0 5.29a.48.48 0 0 1-.54.55h-1.17c-.77 0-.83-.06-.84-.81v-3.5a6.36 6.36 0 0 0-.09-1 1.2 1.2 0 0 0-1-1.08 1.39 1.39 0 0 0-1.44.53 2.38 2.38 0 0 0-.41 1.05c-.09.71-.1 1.43-.12 2.15s0 1.31 0 2c0 .44-.19.67-.65.66s-.84 0-1.26 0a.49.49 0 0 1-.55-.55V55.65c0-.88.06-.92.91-.93h.31c.85 0 .85 0 1 .86a4.38 4.38 0 0 0 .22.67ZM234.86 57l-2.2.73a2.87 2.87 0 0 1-.29-.47 1.34 1.34 0 0 0-1.52-.83 1.47 1.47 0 0 0-1.37 1.1 4.06 4.06 0 0 0-.09 2.39 1.58 1.58 0 0 0 1.34 1.37 1.46 1.46 0 0 0 1.76-.87 3 3 0 0 1 .25-.32l2 .64a1.93 1.93 0 0 1-.95 1.63 5.37 5.37 0 0 1-5.45 0 3.55 3.55 0 0 1-1.51-2.15 5.33 5.33 0 0 1 .09-3.09 3.33 3.33 0 0 1 1.63-2 5.15 5.15 0 0 1 5.06.07 2.53 2.53 0 0 1 1.25 1.8ZM121.85 52.23v1.81c0 .59.11.66.69.7a11.42 11.42 0 0 0 1.17 0c.45 0 .68.18.65.64v.36c0 .59-.1.67-.68.7h-.89c-.29 0-.58.09-.93.15v3.64a1 1 0 0 0 1.06 1h1.27c.05.22.13.5.17.78a.63.63 0 0 1-.48.75 4.55 4.55 0 0 1-3.42-.07 2 2 0 0 1-1.17-2v-3.14c0-1.05 0-.95-.93-1.17-.47-.11-.54-.24-.52-1 0-.39.06-.68.56-.74.87-.11.86-.15.89-1s0-1 1-1.25l1.22-.31a2.15 2.15 0 0 1 .34.15ZM205.27 61.39c.07 1.3-.2 1.61-1.36 1.67-2 .09-2.74-.63-2.74-2.63v-8.34c0-.89 0-.92.9-.92 1.84 0 1.64-.18 1.65 1.62v6.73a5.35 5.35 0 0 0 0 .8 1 1 0 0 0 .94 1c.2.05.34.05.61.07ZM8.89 48.92c-3.49 1.33-7.41-1.33-8.89-4a8.46 8.46 0 0 1 6.19-.38 5.29 5.29 0 0 1 3 3.33 14.15 14.15 0 0 0-3.56-1.18 11.55 11.55 0 0 1 3.26 2.23ZM90.54 70.18C88.26 69.7 86.21 69 84.87 67a5 5 0 0 1-.61-4.1 12 12 0 0 0 2.29 2.7 11.92 11.92 0 0 1-1.5-3.38c2.73 0 5.73 4.28 5.49 7.96ZM141.36 56.74a9.5 9.5 0 0 0-1.2 0 1.82 1.82 0 0 0-1.74 1.91v3.32c0 .87 0 .89-.92.9h-1c-.34 0-.65-.19-.65-.64v-6.34c0-1.12 0-1.12 1.16-1.12h.09c.86 0 .86 0 1 .87a3.48 3.48 0 0 0 .1.44s.08.08.15.17c.33-.06.39-.39.55-.61a2.28 2.28 0 0 1 2.24-1c.32 0 .52.2.48.52-.06.48-.17 1-.26 1.58ZM171 56.27c.22-.31.4-.58.6-.83a2.25 2.25 0 0 1 2.06-.85c.43 0 .6.23.51.65a.24.24 0 0 0 0 .08c-.06.41 0 .94-.23 1.2s-.75.16-1.15.21a1.86 1.86 0 0 0-1.77 2v3.32c0 .8-.05.85-.88.85-1.9 0-1.67.2-1.68-1.67s0-3.64 0-5.47c0-1 0-1 1-1h.45c.66 0 .67 0 .76.72q0 .3.12.6c-.03.05.04.08.21.19ZM224.14 30.68a11.16 11.16 0 0 1-1.24-.11 3.34 3.34 0 0 1-1.08-.4 2.32 2.32 0 0 1-.71-2.44 1.74 1.74 0 0 1 1.41-1.55 5.82 5.82 0 0 1 2.93 0 1.9 1.9 0 0 1 1.49 2.06c0 1.25-.36 1.93-1.38 2.22a10.33 10.33 0 0 1-1.42.22ZM118.16 30.67c-.37-.05-.88-.08-1.37-.19A1.78 1.78 0 0 1 115.4 29a2.19 2.19 0 0 1 1.92-2.92 5.61 5.61 0 0 1 2.48.11 1.75 1.75 0 0 1 1.4 1.66v.71a1.88 1.88 0 0 1-1.76 2c-.37.07-.76.07-1.28.11ZM206.74 58.83v-3.22c0-.79.06-.85.8-.85 2 0 1.74-.19 1.76 1.68s0 3.52 0 5.28c0 1.16 0 1.16-1.21 1.16h-.72c-.45 0-.64-.2-.63-.65.01-1.13 0-2.23 0-3.4ZM222.21 58.83V55.6c0-.78 0-.84.79-.84 2 0 1.74-.18 1.75 1.68s0 3.52 0 5.28c0 1.16 0 1.16-1.2 1.16h-.71c-.47 0-.64-.21-.64-.65.01-1.14.01-2.23.01-3.4ZM143.17 58.81v-3.23c0-.74.09-.8.84-.82h.9c.63 0 .72.1.72.75v6.64c0 .64-.09.7-.75.73h-1c-.63 0-.72-.11-.73-.75.01-1.13.02-2.21.02-3.32ZM3 37.33a8.5 8.5 0 0 1 3.37.2 3.32 3.32 0 0 1 2.35 3c-.31-.21-.57-.39-.84-.56a1.83 1.83 0 0 0-.83-.3l1.44 1.55c-2.2.51-4.89-1.43-5.49-3.89ZM84.08 75c-2.76-.64-4.36-3.3-3.3-5.61l1 1.85c0-.81-.41-1.51-.26-2.31 1.97.66 3.23 3.67 2.56 6.07ZM8 29.76c2.38 1 3.34 3.07 2.35 5.12l-.63-1.44-.13.05.14 1.69C7.86 34.7 7.28 31.54 8 29.76ZM75.86 79c-1.62-2.23-1.08-4.75.67-5.55l-.29 1.79h.11l.83-1.8c1.16 1.32.44 4.17-1.32 5.56ZM24 3.83A3.8 3.8 0 0 1 25.33.35a1.06 1.06 0 0 1 1.15-.26 1 1 0 0 1 .46 1V3.8a6.81 6.81 0 0 0-1.53-.31 6.11 6.11 0 0 0-1.41.34ZM223.53 51c1.09 0 1.53.46 1.41 1.46-.07.64-.39.9-1.25 1-1.12.15-1.79-.44-1.68-1.49.08-.69.52-.97 1.52-.97ZM144.55 51a2.5 2.5 0 0 1 .44 0 1.19 1.19 0 0 1 .95 1.15 1.1 1.1 0 0 1-1 1.19 2.87 2.87 0 0 1-1 0c-.82-.13-1.14-.51-1.12-1.23s.48-1.13 1.31-1.18ZM209.51 52.08c0 .9-.2 1.1-.95 1.33a2.1 2.1 0 0 1-1.4-.11.94.94 0 0 1-.61-1 1.05 1.05 0 0 1 .54-1.13 2.3 2.3 0 0 1 1.82 0 .91.91 0 0 1 .6.91Z"/></g></g></svg>